<svg xmlns="http://www.w3.org/2000/svg" viewBox="0 0 24 24" width="1em" height="1em" class="_2HBN-k68 _2JndpOur"><path d="M16.421 17.84c-1.4.2-2.602 1.4-3.9 1.4-1.699 0-3.098-1.7-5.098-1.5-1.5.3-2.301 1.4-3.9 1.5v2.5c1.8.1 2.7-1.5 4.4-1.5 1.5-.1 2.899 1.5 4.5 1.5 1.699 0 2.899-1.5 4.5-1.5 1.699-.1 2.899 1.5 4.601 1.5v-2.5c-1.705 0-3.003-1.801-5.103-1.4zM7.421 3.64c-3.601 2.199-5.5 6.3-4.801 10.4l3.9-1.601c-.699-3.2-.999-6 .901-8.799zM10.821 10.839l2.1 5.103c.1.3.398.398.699.3l.9-.4c.299-.1.399-.399.299-.698l-2.1-5.103 2.801-1.1c-1.801-3-4.299-5.3-6.7-5.9-1.3 2.101-1.5 5.601-.7 8.9l2.701-1.102zM16.921 8.339l3.898-1.6c-2.398-3.5-6.6-5.2-10.699-4.2 3.301.7 5 2.9 6.801 5.8z"/></svg>